<svg xmlns="http://www.w3.org/2000/svg" viewBox="0 0 730.55 349.46"><defs><style>.cls-1{fill:#dc0000;}</style></defs><g id="Layer_2" data-name="Layer 2"><g id="Layer_1-2" data-name="Layer 1"><path class="cls-1" d="M126.78,306.07c32.78-27.63,34.39-74.25,3.61-104.13L77.15,150.28,25.69,193.66C-7.09,221.29-8.72,267.9,22.07,297.79l53.25,51.67Zm-83-34.82c-13-12.58-11.89-32.56,2.4-44.6L78,199.83l29.73,28.84c13.85,13.44,12.7,34.77-2.57,47.64l-30,25.34Z"/><path class="cls-1" d="M96.71,44.11C64.25,72.2,63.16,118.84,94.29,148.27l53.83,50.91,51-44.11c32.46-28.09,33.56-74.72,2.43-104.16L147.67,0Zm83.42,33.64c13.11,12.39,12.27,32.38-1.88,44.63l-31.51,27.27-30.05-28.42c-14-13.24-13.11-34.59,2-47.68L148.46,47.8Z"/><path class="cls-1" d="M484.72,216.53V259.4a24.6,24.6,0,0,0,24.6,24.6h48.16a2.46,2.46,0,0,0,2.46-2.46V273a2.46,2.46,0,0,0-2.46-2.46H508.25a9.84,9.84,0,0,1-9.83-9.84V216.53a2.46,2.46,0,0,0-2.46-2.46h-8.78A2.46,2.46,0,0,0,484.72,216.53Z"/><path class="cls-1" d="M332.36,216.65v43.21A24.69,24.69,0,0,0,357,284.65h48.16a2.48,2.48,0,0,0,2.46-2.48v-8.62a2.48,2.48,0,0,0-2.46-2.48H355.89a9.88,9.88,0,0,1-9.84-9.92v-44.5a2.47,2.47,0,0,0-2.45-2.48h-8.78A2.47,2.47,0,0,0,332.36,216.65Z"/><path class="cls-1" d="M730,219.1c-.05.12-.11.22-.16.33q-6.66,13.23-14,26.11c-1.87,3.28-3.89,6.67-7.08,8.69-4.2,2.66-9.55,2.43-14.51,2l-.18,25.43c0,1-.09,2.08-.9,2.61a2.94,2.94,0,0,1-1.66.33h-7.86a2.29,2.29,0,0,1-2.63-3l-.17-25.36c-4.55.24-9.43.4-13.26-2-2.9-1.85-4.75-4.91-6.49-7.86l-13.67-23.12c-.81-1.36-3.9-5.85-2.13-7.2,1.06-.8,3-1.08,4.28-1.31a23.17,23.17,0,0,1,4.63-.32,6.26,6.26,0,0,1,3.1.72c1.79,1,2.7,3.13,3.69,4.84l3.81,6.56,7.51,13a7.68,7.68,0,0,0,2.51,3,7.6,7.6,0,0,0,3.85.67h19.55a5.19,5.19,0,0,0,5.75-3.62l12.3-22.35a5.18,5.18,0,0,1,1.74-2.12,5,5,0,0,1,2.72-.42l7.31.21a3.27,3.27,0,0,1,1.78.4C731,216.07,730.58,217.78,730,219.1Z"/><path class="cls-1" d="M475.82,219.1l-.15.33q-6.66,13.23-14,26.11c-1.87,3.28-3.89,6.67-7.08,8.69-4.2,2.66-9.55,2.43-14.51,2l-.18,25.43c0,1-.1,2.08-.9,2.61a3,3,0,0,1-1.67.33h-7.86a2.29,2.29,0,0,1-2.62-3l-.17-25.36c-4.55.24-9.43.4-13.27-2-2.89-1.85-4.74-4.91-6.49-7.86l-13.66-23.12c-.81-1.36-3.91-5.85-2.13-7.2,1.05-.8,3-1.08,4.28-1.31a23.07,23.07,0,0,1,4.62-.32,6.28,6.28,0,0,1,3.11.72c1.79,1,2.7,3.13,3.69,4.84l3.8,6.56,7.52,13a7.68,7.68,0,0,0,2.51,3,7.58,7.58,0,0,0,3.84.67h19.55a5.21,5.21,0,0,0,5.76-3.62l12.3-22.35a5.1,5.1,0,0,1,1.74-2.12,5,5,0,0,1,2.72-.42l7.31.21a3.24,3.24,0,0,1,1.77.4C476.81,216.07,476.43,217.78,475.82,219.1Z"/><path class="cls-1" d="M605.08,214.17A36.06,36.06,0,0,0,569,250.22v34.45h31.27a36.06,36.06,0,0,0,36.06-36.06V214.17Zm15.33,37.39a15.47,15.47,0,0,1-15.72,15.19H585.36V247.52c0-9,7.52-16.23,16.79-16.23h18.26Z"/><path class="cls-1" d="M291.82,214.17a35.88,35.88,0,0,0-36,35.72V284H287a35.89,35.89,0,0,0,36.06-35.72V214.17Zm15.33,37c0,8.31-7,15-15.72,15H272.1v-19c0-8.88,7.52-16.08,16.79-16.08h18.26Z"/><path class="cls-1" d="M242.9,284.44h-7.1a3.39,3.39,0,0,1-3.39-3.39V260a3.38,3.38,0,0,0-3.39-3.38H180.2a3.38,3.38,0,0,0-3.38,3.38v21a3.39,3.39,0,0,1-3.39,3.39h-7.11a3.38,3.38,0,0,1-3.38-3.39v-63.5a3.38,3.38,0,0,1,3.38-3.38h7.11a3.38,3.38,0,0,1,3.39,3.38V238.8a3.38,3.38,0,0,0,3.38,3.39H229a3.39,3.39,0,0,0,3.39-3.39V217.55a3.38,3.38,0,0,1,3.39-3.38h7.1a3.38,3.38,0,0,1,3.39,3.38v63.5A3.39,3.39,0,0,1,242.9,284.44Z"/></g></g></svg>